# xmcd CD database file
#
# Track frame offsets:
#	150
#	14735
#	29170
#	42958
#	56095
#	67950
#	80840
#	90650
#	99565
#	110970
#	122530
#	136520
#	146783
#	157908
#	170163
#	183033
#	192933
#
# Disc length: 2724 seconds
#
# Revision: 0
# Processed by: cddbd v1.5.2PL0 Copyright (c) Steve Scherf et al.
# Submitted via: CDex 1.51
#
DISCID=f20aa211
DTITLE=夏日花茶音樂 - 薩克斯風-5
DYEAR=1900
DGENRE=Blues
TTITLE0=Green Green Grass Of Home
TTITLE1=San Francisco
TTITLE2=Cotton Fifld
TTITLE3=500 Miles
TTITLE4=Let It Be Me
TTITLE5=Guantanamera
TTITLE6=Yesterday
TTITLE7=Grying In The Rain
TTITLE8=My Home Town
TTITLE9=Massachusetts
TTITLE10=I Started A Joke
TTITLE11=Just Walking In The Rain
TTITLE12=Summer Kisses Winter Tears
TTITLE13=Blame It On The Bossanova
TTITLE14=Those Boots Are Made For Walking
TTITLE15=Silver Threads And Golden Needles
TTITLE16=Speed Gonzales
EXTD=
EXTT0=
EXTT1=
EXTT2=
EXTT3=
EXTT4=
EXTT5=
EXTT6=
EXTT7=
EXTT8=
EXTT9=
EXTT10=
EXTT11=
EXTT12=
EXTT13=
EXTT14=
EXTT15=
EXTT16=
PLAYORDER=
